<svg xmlns="http://www.w3.org/2000/svg" xmlns:xlink="http://www.w3.org/1999/xlink" width="229.5" height="216.5" viewBox="0 0 229.5 216.5">
  <defs>
    <linearGradient id="linear-gradient" x1="0.5" x2="0.5" y2="1" gradientUnits="objectBoundingBox">
      <stop offset="0" stop-color="#f7931a"/>
      <stop offset="1" stop-color="#e89d43"/>
    </linearGradient>
  </defs>
  <g id="btcbnb" transform="translate(1917 -2676)">
    <g id="BTCETH" transform="translate(-112 -156)">
      <g id="Group_1096" data-name="Group 1096" transform="translate(-10310.499 -2275)">
        <circle id="Ellipse_37" data-name="Ellipse 37" cx="91" cy="91" r="91" transform="translate(8550.499 5139)" stroke="#fff" stroke-width="5" fill="url(#linear-gradient)"/>
      </g>
      <g id="BitcoinSign" transform="matrix(0.978, 0.208, -0.208, 0.978, -1704.057, 2890.715)">
        <g id="Group_1691" data-name="Group 1691" transform="translate(11.848 5.89)">
          <path id="Path_15474" data-name="Path 15474" d="M72.487,53.518c5.506-2.8,8.952-7.739,8.147-15.962-1.084-11.238-10.8-15.006-23.055-16.079l0-15.588h-9.5l0,15.178c-2.5,0-5.047.049-7.583.1l0-15.275H31l0,15.584c-2.057.042-4.077.082-6.049.082v-.046l-13.1-.005,0,10.132s7.015-.132,6.9,0c3.846,0,5.1,2.234,5.463,4.16l0,17.757V78.495a3.356,3.356,0,0,1-3.571,3.144c.122.108-6.91,0-6.91,0L11.85,92.967H24.209c2.3,0,4.566.038,6.786.056L31,108.787l9.488,0,0-15.6c2.61.053,5.13.076,7.591.073l0,15.526h9.5l.005-15.738c15.966-.916,27.144-4.935,28.534-19.916C87.233,61.076,81.552,55.692,72.487,53.518Zm-31.767-21.2c5.357,0,22.205-1.7,22.208,9.476,0,10.719-16.845,9.467-22.208,9.467Zm0,49.394,0-20.887c6.436,0,26.625-1.85,26.627,10.439C67.349,83.052,47.156,81.711,40.715,81.715Z" transform="translate(-11.848 -5.89)" fill="#fff"/>
        </g>
      </g>
      <g id="Group_1692" data-name="Group 1692" transform="translate(160.016 84.587)">
        <path id="Path" d="M632.2,207.1v21.891l18.5,8.269Z" transform="translate(-2548.222 2559.704)" fill="rgba(255,255,255,0.6)"/>
        <path id="Path_1_" d="M479.3,207.1l-18.5,30.16,18.5-8.269Z" transform="translate(-2395.324 2559.704)" fill="#fff"/>
        <path id="Path_2_" d="M632.2,529.141v14.875L650.713,518.4Z" transform="translate(-2548.222 2282.007)" fill="rgba(255,255,255,0.6)"/>
        <path id="Path_3_" d="M479.3,544.015V529.141L460.8,518.4Z" transform="translate(-2395.324 2282.007)" fill="#fff"/>
        <path id="Path_4_" d="M632.2,428.909l18.5-10.741L632.2,409.9Z" transform="translate(-2548.222 2378.795)" fill="rgba(255,255,255,0.2)"/>
        <path id="Path_5_" d="M460.8,418.169l18.5,10.741V409.9Z" transform="translate(-2395.324 2378.795)" fill="rgba(255,255,255,0.6)"/>
      </g>
    </g>
    <g id="Binance-BNB-Icon2-Logo.wine" transform="translate(-1911.553 2681.447)">
      <g id="Ellipse_41" data-name="Ellipse 41" transform="translate(-0.447 -0.447)" fill="#f0b90b" stroke="#fff" stroke-width="5">
        <circle cx="44" cy="44" r="44" stroke="none"/>
        <circle cx="44" cy="44" r="46.5" fill="none"/>
      </g>
      <path id="Path_15157" data-name="Path 15157" d="M28.8,45.117l-6.7,6.742L15.36,45.117,22.1,38.375ZM45.117,28.8,56.648,40.328l6.742-6.742L51.859,22.1,45.117,15.36,38.375,22.1,26.891,33.586l6.742,6.742Zm23.015,9.578-6.7,6.742,6.742,6.742,6.7-6.742ZM45.117,61.437,33.586,49.906l-6.7,6.742L38.422,68.178l6.7,6.7,6.742-6.742L63.389,56.6l-6.742-6.7Zm0-9.578,6.742-6.742-6.742-6.742-6.742,6.742Z" transform="translate(-1.324 -1.324)" fill="#fff"/>
    </g>
  </g>
</svg>
