<svg xmlns="http://www.w3.org/2000/svg" xmlns:xlink="http://www.w3.org/1999/xlink" width="229.5" height="216.5" viewBox="0 0 229.5 216.5">
  <defs>
    <linearGradient id="linear-gradient" x1="0.5" x2="0.5" y2="1" gradientUnits="objectBoundingBox">
      <stop offset="0" stop-color="#f7931a"/>
      <stop offset="1" stop-color="#e89d43"/>
    </linearGradient>
  </defs>
  <g id="DAI-USDT" transform="translate(1941 -2885)">
    <g id="Group_1096" data-name="Group 1096" transform="translate(-10446.499 -2222)">
      <circle id="Ellipse_37" data-name="Ellipse 37" cx="91" cy="91" r="91" transform="translate(8550.499 5139)" stroke="#fff" stroke-width="5" fill="url(#linear-gradient)"/>
    </g>
    <g id="Group_1692" data-name="Group 1692" transform="translate(24.016 137.587)">
      <path id="Path" d="M632.2,207.1v21.891l18.5,8.269Z" transform="translate(-2548.222 2559.704)" fill="rgba(255,255,255,0.6)"/>
      <path id="Path_1_" d="M479.3,207.1l-18.5,30.16,18.5-8.269Z" transform="translate(-2395.324 2559.704)" fill="#fff"/>
      <path id="Path_2_" d="M632.2,529.141v14.875L650.713,518.4Z" transform="translate(-2548.222 2282.007)" fill="rgba(255,255,255,0.6)"/>
      <path id="Path_3_" d="M479.3,544.015V529.141L460.8,518.4Z" transform="translate(-2395.324 2282.007)" fill="#fff"/>
      <path id="Path_4_" d="M632.2,428.909l18.5-10.741L632.2,409.9Z" transform="translate(-2548.222 2378.795)" fill="rgba(255,255,255,0.2)"/>
      <path id="Path_5_" d="M460.8,418.169l18.5,10.741V409.9Z" transform="translate(-2395.324 2378.795)" fill="rgba(255,255,255,0.6)"/>
    </g>
    <path id="Path_15475" data-name="Path 15475" d="M134.856,148.434H165.05c.644,0,.948,0,.994-.844a57.71,57.71,0,0,0,0-9.236c0-.6-.3-.844-.944-.844H105.009c-.744,0-.944.247-.944.944v8.839c0,1.141,0,1.141,1.191,1.141h29.6Zm27.816-21.255a.967.967,0,0,0,0-.694,19.639,19.639,0,0,0-1.8-3.129,25.336,25.336,0,0,0-3.676-4.62,12.186,12.186,0,0,0-2.285-2.235,35.7,35.7,0,0,0-14.9-7.548,37.039,37.039,0,0,0-8.442-.894H104.906c-.744,0-.844.3-.844.944v17.629c0,.744,0,.944.944.944h57.309s.5-.1.6-.4h-.243Zm0,31.585a11.588,11.588,0,0,0-2.539,0H105.059c-.744,0-.994,0-.994.994v17.235c0,.794,0,.994.994.994h25.427a12.7,12.7,0,0,0,3.622-.247,37.852,37.852,0,0,0,10.781-2.385,19.73,19.73,0,0,0,3.622-1.688h.347a32.264,32.264,0,0,0,13.856-13.949s.347-.751-.043-.948ZM94.085,186.923V159.461c0-.647,0-.744-.794-.744H82.514c-.6,0-.844,0-.844-.794v-9.436H93.191c.644,0,.894,0,.894-.844v-9.336c0-.6,0-.744-.794-.744H82.514c-.6,0-.844,0-.844-.794V128.03c0-.547,0-.694.794-.694H93.141c.744,0,.944,0,.944-.944V99.624c0-.794,0-.994.994-.994h37.245a56.748,56.748,0,0,1,8.046.894,48.545,48.545,0,0,1,15.544,5.761,43.806,43.806,0,0,1,8.739,6.755,47.856,47.856,0,0,1,5.314,6.6,39.83,39.83,0,0,1,3.88,7.6,1.293,1.293,0,0,0,1.484,1.044h8.889c1.141,0,1.141,0,1.191,1.094v8.146c0,.794-.3.994-1.094.994h-6.855c-.694,0-.894,0-.844.894a50.733,50.733,0,0,1,0,9.086c0,.844,0,.944.948.944h7.842c.347.447,0,.894,0,1.344a10.034,10.034,0,0,1,0,1.734v6.011c0,.844-.247,1.094-.994,1.094h-9.386a1.243,1.243,0,0,0-1.441.944,39.713,39.713,0,0,1-10.431,15.2,59.838,59.838,0,0,1-5.314,4.269c-1.988,1.144-3.923,2.335-5.961,3.279a53.693,53.693,0,0,1-11.721,3.722,61.107,61.107,0,0,1-11.621.944H94.071v-.05Z" transform="translate(-1938.616 2865.19)" fill="#fefefd"/>
    <g id="Ellipse_42" data-name="Ellipse 42" transform="translate(-1936 2890)" fill="#26a17b" stroke="#fff" stroke-width="5">
      <circle cx="44" cy="44" r="44" stroke="none"/>
      <circle cx="44" cy="44" r="46.5" fill="none"/>
    </g>
    <g id="Cjdowner-Cryptocurrency-Flat-Tether-USDT" transform="translate(-1930 2896)">
      <path id="Path_15477" data-name="Path 15477" d="M34.084,30.683v0c-.263.019-1.618.1-4.643.1-2.415,0-4.114-.072-4.712-.1v.007C15.435,30.277,8.5,28.658,8.5,26.722s6.938-3.552,16.232-3.968v6.321c.607.043,2.348.146,4.753.146,2.885,0,4.332-.12,4.6-.143V22.758c9.276.414,16.2,2.032,16.2,3.964s-6.921,3.55-16.2,3.961m0-8.582V16.444H47.027V7.819H11.786v8.625H24.729V22.1C14.211,22.581,6.3,24.666,6.3,27.162s7.911,4.578,18.429,5.063V50.351h9.355V32.22c10.5-.483,18.393-2.565,18.393-5.059S44.586,22.586,34.084,22.1" transform="translate(8.761 10.873)" fill="#fff" fill-rule="evenodd"/>
    </g>
  </g>
</svg>
