<svg xmlns="http://www.w3.org/2000/svg" width="716.206" height="173.463" viewBox="0 0 716.206 173.463">
  <g id="Group_1103" data-name="Group 1103" transform="translate(-8855.658 -6672)">
    <g id="Group_1101" data-name="Group 1101" transform="translate(9016.064 6707.56)">
      <g id="Group_1025" data-name="Group 1025" transform="translate(35.602 0)">
        <path id="Path_6032" data-name="Path 6032" d="M76.753-76.307,50.644-115.165,73.883-152.14H50.738L33.144-123.867V-152.14H13.057v75.834H33.144v-28.837L52.338-76.307Zm52.594-75.928v36.976L90.49-152.893H84V-76.26h20.134v-37.07l39,37.776h6.4v-76.68ZM162.7-76.307h20.134V-152.14H162.7Zm110.645-43.562h-38.9v15.007H251.8c-.282,7.245-6.821,11.667-15.995,11.667-14.019,0-22.534-10.349-22.534-20.981,0-11.714,9.926-20.981,21.216-20.981a24.336,24.336,0,0,1,15.9,6.492l11.149-15.289c-6.257-5.786-17.406-9.879-27.05-10.02-23.522,0-41.774,18.206-41.774,39.846s18.206,39.61,42.292,39.61c21.546,0,38.952-14.913,38.952-37.964A50.428,50.428,0,0,0,273.346-119.869Zm53.159-32.272v28.461H303.971V-152.14H283.837v75.834h20.134v-28.555h22.534v28.555h20.087V-152.14Zm85.2,0H355.154v18.817H373.36v57.016h20.182v-57.016H411.7Z" transform="translate(-13.057 164.287)" fill="#002d56"/>
        <path id="Subtraction_6" data-name="Subtraction 6" d="M29.158,104.333h0L13.107,93.9a91.4,91.4,0,0,0,8.944-29.434L0,64.143V53.954L22.775,54c.007-.594.008-1.213,0-1.838,0-.583,0-1.188,0-1.8L0,50.418V40.267l22.059-.32a91.464,91.464,0,0,0-8.952-29.514L29.158,0V104.333Zm56.7-30.377h0V60.806l-50.4,3.117V40.449l50.4,3.117V30.457a21.749,21.749,0,0,1,0,43.5Z" transform="translate(412.589 0)" fill="#002d56"/>
      </g>
      <path id="Subtraction_7" data-name="Subtraction 7" d="M21.256,16.837h0l-3.595-.053L0,8.438,17.658.051,21.256,0V7.177l-6.21.014L7.183,8.438l7.863,1.2,6.21.014v7.183Z" transform="translate(0 39.229)" fill="#002d56"/>
    </g>
    <g id="Group_1102" data-name="Group 1102" transform="translate(8855.658 6672)">
      <path id="Path_14773" data-name="Path 14773" d="M2509.589,648.729h-11.895l.638,11.794-20.484-12.112-.418-1.882c-6.665-29.936-31.788-38.6-32.042-38.679l-2.769-.92-.263-2.9c-.081-.875-.589-9.9,5.855-56.736,6.911-50.259,54.108-59.972,54.585-60.065l.844-.164.848.164c.475.093,47.67,9.806,54.585,60.065,6.442,46.834,5.934,55.862,5.853,56.736l-.263,2.9-2.769.92c-1.022.346-25.42,8.934-32.042,38.679l-.42,1.882-20.482,12.113Z" transform="translate(-2442.315 -487.061)" fill="#002d56"/>
      <path id="Path_14774" data-name="Path 14774" d="M2661.473,1057.655h23.441l12.557-65.893s16-18.931,15.577-35.981l-30.6,9.418-6.673,25.45-1.937,9.462-2.517-30.052-8.969-4.86-29.313-11.221s-1.45,34.361,22.7,38.9Z" transform="translate(-2611.148 -900.439)" fill="#002d56"/>
      <path id="Path_14775" data-name="Path 14775" d="M2589.03,582.906c-6.557-47.684-51.019-56.3-51.019-56.3s-44.46,8.617-51.019,56.3-5.832,55.726-5.832,55.726,27.7,9.192,34.986,41.939l11.659,6.894-4.373-80.43s-23.323-3.447-19.679-24.7l25.51,9.767,2.915,29.874,5.832,1.724,5.832-1.724,2.915-29.874,25.511-9.767c3.644,21.257-19.679,24.7-19.679,24.7l-4.373,80.43,11.661-6.894c7.288-32.747,34.985-41.939,34.985-41.939S2595.593,630.589,2589.03,582.906Z" transform="translate(-2476.684 -522.07)" fill="#78848a"/>
      <path id="Path_14776" data-name="Path 14776" d="M2685.493,1037.3l4.325,79.546-.036.834-2.111-1.249-7.4-75.555-8.533-5.194c-13.355-8.9-5.925-23.087-5.925-23.087C2662.17,1033.849,2685.493,1037.3,2685.493,1037.3Z" transform="translate(-2638.361 -952.331)" fill="#b0bfc6" style="mix-blend-mode: screen;isolation: isolate"/>
      <path id="Path_14777" data-name="Path 14777" d="M2521.671,1247.092l-1.113,26.431s17.249,6.956,23.927,26.155l-5.007-25.32s-8.348,2.5-13.077-3.061S2521.671,1247.092,2521.671,1247.092Z" transform="translate(-2511.586 -1159.942)" fill="#b0bfc6" style="mix-blend-mode: screen;isolation: isolate"/>
      <path id="Path_14778" data-name="Path 14778" d="M2679.737,1430.065l-15.21-60.841s4.176,35.521,4.916,39.974C2669.443,1409.2,2675.656,1428.581,2679.737,1430.065Z" transform="translate(-2639.048 -1268.07)" fill="#002d56"/>
      <path id="Path_14779" data-name="Path 14779" d="M3070.875,1037.3l-4.324,79.546.036.834,2.112-1.249,7.4-75.555,8.532-5.194c13.355-8.9,5.923-23.087,5.923-23.087C3094.2,1033.849,3070.875,1037.3,3070.875,1037.3Z" transform="translate(-2994.972 -952.331)" fill="#acbac3"/>
      <path id="Path_14780" data-name="Path 14780" d="M3251.9,1247.092l1.113,26.431s-17.25,6.956-23.927,26.155l5.007-25.32s8.346,2.5,13.078-3.061S3251.9,1247.092,3251.9,1247.092Z" transform="translate(-3138.874 -1159.942)" fill="#919ea5"/>
      <path id="Path_14781" data-name="Path 14781" d="M2648.144,619.634a46.4,46.4,0,0,0-28.1,34.223c2.5-1.948,8.9-13.078,22.537-13.634s19.2-8.069,16.694-14.746S2650.927,618.521,2648.144,619.634Z" transform="translate(-2599.664 -603.991)" fill="#b0bfc6" style="mix-blend-mode: screen;isolation: isolate"/>
      <path id="Path_14782" data-name="Path 14782" d="M2687.984,856.822s3.894-5.008,8.624-5.287S2691.043,863.221,2687.984,856.822Z" transform="translate(-2659.815 -809.738)" fill="#b0bfc6" style="mix-blend-mode: screen;isolation: isolate"/>
    </g>
  </g>
</svg>
