<svg xmlns="http://www.w3.org/2000/svg" width="679.093" height="164.407" viewBox="0 0 679.093 164.407">
  <g id="Group_1097" data-name="Group 1097" transform="translate(-74.318 -67.083)">
    <g id="Group_1025" data-name="Group 1025" transform="translate(74.318 67.083)">
      <path id="Path_6032" data-name="Path 6032" d="M73.428-80.362,48.682-117.191l22.026-35.045H48.771L32.1-125.439v-26.8H13.057v71.874H32.1v-27.332L50.287-80.362Zm49.848-71.964v35.045L86.447-152.95H80.294v72.632H99.377v-35.135l36.963,35.8H142.4v-72.677Zm31.612,71.964h19.083v-71.874H154.888Zm104.869-41.288H222.884v14.223h16.453c-.268,6.866-6.465,11.058-15.16,11.058-13.287,0-21.357-9.809-21.357-19.886,0-11.1,9.408-19.886,20.109-19.886A23.065,23.065,0,0,1,238-129.987l10.567-14.491c-5.93-5.484-16.5-9.363-25.638-9.5-22.294,0-39.593,17.255-39.593,37.765s17.255,37.542,40.084,37.542c20.421,0,36.918-14.134,36.918-35.982A47.8,47.8,0,0,0,259.757-121.649Zm50.383-30.587v26.975H288.783v-26.975H269.7v71.874h19.083v-27.064h21.357v27.064h19.039v-71.874Zm80.747,0H337.294V-134.4h17.255v54.04h19.128V-134.4h17.211Z" transform="translate(172.998 198.525)" fill="#002d56"/>
      <g id="Group_1024" data-name="Group 1024" transform="translate(0 0)">
        <path id="Subtraction_5" data-name="Subtraction 5" d="M63.156,164.407h0l.607-11.178H52.487l.607,11.178-19.416-11.48-.4-1.784A51.615,51.615,0,0,0,15.819,122.2a50.992,50.992,0,0,0-8.948-5.948,31.393,31.393,0,0,0-3.958-1.771l-2.624-.872L.04,110.858c-.075-.828-.56-9.375,5.548-53.774C12.14,9.45,56.872.243,57.323.155l.8-.155.8.155A53.9,53.9,0,0,1,66.28,2.389a75.589,75.589,0,0,1,7.487,3.258,74.469,74.469,0,0,1,8.74,5.143A65.634,65.634,0,0,1,99.877,28.105a63.836,63.836,0,0,1,6.7,12.86,69.044,69.044,0,0,1,2.43,7.631,76.159,76.159,0,0,1,1.656,8.488c6.106,44.382,5.623,52.944,5.548,53.774l-.249,2.752-2.623.872a32.79,32.79,0,0,0-4.271,1.9,49.583,49.583,0,0,0-8.923,5.979,51.031,51.031,0,0,0-17.176,28.779l-.4,1.784ZM58.124,4.3h0A49.1,49.1,0,0,0,51.443,6.28a69.5,69.5,0,0,0-6.98,2.985,68.685,68.685,0,0,0-8.186,4.766A60.993,60.993,0,0,0,19.947,30.255a60.032,60.032,0,0,0-6.316,12.136,65.449,65.449,0,0,0-2.3,7.222,72.439,72.439,0,0,0-1.568,8.047C8.352,67.95,7.179,77.142,6.281,84.978c-.716,6.255-1.257,11.651-1.608,16.038a76.331,76.331,0,0,0-.432,9.461,34.372,34.372,0,0,1,4.21,1.846,55.117,55.117,0,0,1,9.779,6.389A55.691,55.691,0,0,1,37.4,150.225l11.052,6.535-.012-.222.3.175.034-.79-4.1-75.394a29.364,29.364,0,0,1-5.867-1.7,26.834,26.834,0,0,1-5.177-2.738,19.442,19.442,0,0,1-4.757-4.545c-2.838-3.9-3.8-8.708-2.874-14.3l23.837,9.126L52.6,94.686l5.527,1.633,5.527-1.633,2.764-28.314,24.178-9.257.011.061,0,.029,0,.016,0,.018,0,.015,0,.015,0,.01v.009l0,.014,0,.028c0,.012,0,.023.005.034v.005l0,.009,0,.015.006.035,0,.01v.014l.007.043,0,.018c0,.019.006.039.009.058v0A18.751,18.751,0,0,1,88.746,70l-.007.012,0,.006-.012.021-.015.026,0,0a16.8,16.8,0,0,1-1.282,1.9A19.748,19.748,0,0,1,82.967,76.1a26.558,26.558,0,0,1-4.606,2.5c-.466.2-.945.388-1.424.563h0l-.009,0A29.63,29.63,0,0,1,72.121,80.5c-.118.02-.18.03-.18.03l-4.1,75.394v0l-.045.833.079-.047,1.968-1.164,9.005-5.324a55.693,55.693,0,0,1,19.17-31.513,55.115,55.115,0,0,1,9.779-6.389,35.214,35.214,0,0,1,4.209-1.846,75.751,75.751,0,0,0-.432-9.461c-.351-4.384-.892-9.78-1.608-16.038-.9-7.818-2.068-17.01-3.487-27.319a72.553,72.553,0,0,0-1.567-8.047,65.513,65.513,0,0,0-2.3-7.222A60.056,60.056,0,0,0,96.3,30.255,61,61,0,0,0,79.972,14.031a68.706,68.706,0,0,0-8.186-4.766,69.479,69.479,0,0,0-6.98-2.985A50.487,50.487,0,0,0,58.127,4.3h0ZM85.508,132.436h0l4.746-23.992a15.95,15.95,0,0,0,4.118.532h0A12.686,12.686,0,0,0,98.6,108.3a9.284,9.284,0,0,0,4.045-2.758,15.066,15.066,0,0,0,2.592-5.81,53.835,53.835,0,0,0,1.331-7.639c.524-4.746.559-9.008.561-9.478l1.054,25.037h0a27.511,27.511,0,0,0-2.651,1.314,44.953,44.953,0,0,0-6.313,4.256,44.48,44.48,0,0,0-7.5,7.668A41.512,41.512,0,0,0,85.508,132.436Zm-54.328,0a41.5,41.5,0,0,0-6.212-11.545,44.49,44.49,0,0,0-7.5-7.668,44.944,44.944,0,0,0-6.313-4.256,27.821,27.821,0,0,0-2.651-1.314h0L9.558,82.6c0,.039.006,4.473.561,9.494a53.848,53.848,0,0,0,1.331,7.639,15.07,15.07,0,0,0,2.591,5.81,9.285,9.285,0,0,0,4.045,2.758,12.694,12.694,0,0,0,4.229.675,15.927,15.927,0,0,0,4.118-.532h0l4.746,23.992ZM25.473,58.36h0c.05-.408.112-.827.184-1.245l.305.117C25.874,57.411,25.694,57.794,25.473,58.36Zm-6.158-11.1a43.939,43.939,0,0,1,15.2-25.613,45.32,45.32,0,0,1,7.981-5.278,29.292,29.292,0,0,1,3.457-1.545,7.3,7.3,0,0,1,2.644-.472c1.7,0,5.87.586,7.9,6.01a8.2,8.2,0,0,1-.878,7.587c-2.5,3.775-7.951,6.1-14.944,6.39C30.326,34.763,24.387,41.6,21.2,45.273a17.139,17.139,0,0,1-1.881,1.989Zm9.945-.85A2.747,2.747,0,0,1,26.7,44.626l0,0a17.148,17.148,0,0,1,2.4-2.4,10.6,10.6,0,0,1,5.769-2.6c.053,0,.1,0,.15,0a.927.927,0,0,1,.929.439c.277.579-.177,1.715-1.185,2.963a11.546,11.546,0,0,1-2.561,2.338A5.6,5.6,0,0,1,29.26,46.413Z" transform="translate(0 0)" fill="#002d56"/>
      </g>
      <path id="Subtraction_6" data-name="Subtraction 6" d="M27.636,98.886h0L12.423,89A86.626,86.626,0,0,0,20.9,61.1L0,60.794V51.138l21.586.047c.007-.563.008-1.149,0-1.742,0-.552,0-1.126,0-1.7L0,47.786V38.164l20.908-.3A86.689,86.689,0,0,0,12.423,9.889L27.636,0V98.886ZM81.377,70.095h0V57.632L33.607,60.587V38.337l47.769,2.955V28.867a20.614,20.614,0,0,1,0,41.228Z" transform="translate(577.103 34.776)" fill="#002d56"/>
    </g>
    <path id="Subtraction_7" data-name="Subtraction 7" d="M20.146,15.958h0l-3.407-.05L0,8,16.736.049,20.146,0V6.8l-5.886.013L6.808,8l7.453,1.14,5.886.013v6.808Z" transform="translate(226.629 139.04)" fill="#002d56"/>
  </g>
</svg>
