<svg xmlns="http://www.w3.org/2000/svg" width="710.609" height="172.037" viewBox="0 0 710.609 172.037">
  <g id="Group_1104" data-name="Group 1104" transform="translate(-74.318 -67.083)">
    <g id="Group_1025" data-name="Group 1025" transform="translate(74.318 67.083)">
      <path id="Path_6032" data-name="Path 6032" d="M76.229-76.945,50.335-115.484l23.048-36.672H50.428L32.979-124.115v-28.041H13.057v75.21H32.979v-28.6l19.036,28.6Zm52.162-75.3v36.672L89.853-152.9H83.414v76h19.969v-36.765L142.062-76.2h6.345v-76.05Zm33.079,75.3H181.44v-75.21H161.471Zm109.736-43.2H232.622v14.883h17.216c-.28,7.185-6.765,11.571-15.863,11.571-13.9,0-22.348-10.264-22.348-20.809,0-11.617,9.844-20.809,21.042-20.809a24.136,24.136,0,0,1,15.77,6.439L259.5-144.037c-6.205-5.739-17.263-9.8-26.827-9.938-23.328,0-41.431,18.056-41.431,39.518s18.056,39.285,41.944,39.285c21.369,0,38.632-14.79,38.632-37.652A50.012,50.012,0,0,0,271.206-120.149Zm52.722-32.006v28.227H301.58v-28.227H281.611v75.21H301.58v-28.32h22.348v28.32H343.85v-75.21Zm84.495,0H352.342v18.663H370.4v56.548h20.016v-56.548h18.009Z" transform="translate(181.632 200.593)" fill="#fff"/>
      <g id="Group_1024" data-name="Group 1024" transform="translate(0 0)">
        <path id="Subtraction_5" data-name="Subtraction 5" d="M66.087,172.037h0l.635-11.7h-11.8l.635,11.7L35.241,160.023l-.415-1.867a54.011,54.011,0,0,0-18.273-30.283,53.359,53.359,0,0,0-9.363-6.224A32.85,32.85,0,0,0,3.048,119.8L.3,118.883.041,116c-.079-.867-.586-9.81,5.806-56.27C12.7,9.889,59.511.254,59.983.163L60.822,0l.84.163A56.4,56.4,0,0,1,69.356,2.5,79.1,79.1,0,0,1,77.19,5.908a77.926,77.926,0,0,1,9.145,5.382A68.68,68.68,0,0,1,104.512,29.41a66.8,66.8,0,0,1,7.01,13.457,72.249,72.249,0,0,1,2.543,7.985,79.694,79.694,0,0,1,1.733,8.882c6.389,46.442,5.884,55.4,5.806,56.27l-.261,2.88-2.745.912a34.31,34.31,0,0,0-4.47,1.99,51.884,51.884,0,0,0-9.337,6.256,53.4,53.4,0,0,0-17.973,30.115l-.416,1.867ZM60.822,4.5h0a51.374,51.374,0,0,0-6.991,2.074,72.729,72.729,0,0,0-7.3,3.124,71.873,71.873,0,0,0-8.566,4.987A63.824,63.824,0,0,0,20.872,31.66a62.818,62.818,0,0,0-6.609,12.7,68.486,68.486,0,0,0-2.4,7.557,75.8,75.8,0,0,0-1.64,8.42C8.74,71.1,7.512,80.722,6.573,88.922,5.824,95.468,5.257,101.114,4.89,105.7a79.873,79.873,0,0,0-.452,9.9,35.967,35.967,0,0,1,4.405,1.932,57.674,57.674,0,0,1,10.233,6.686A58.275,58.275,0,0,1,39.136,157.2L50.7,164.035l-.012-.233.31.183.036-.827L46.746,84.266a30.727,30.727,0,0,1-6.139-1.777,28.08,28.08,0,0,1-5.418-2.865,20.345,20.345,0,0,1-4.978-4.756C27.242,70.791,26.23,65.756,27.2,59.9l24.943,9.549L55.039,99.08l5.783,1.709,5.783-1.709L69.5,69.452l25.3-9.686.011.064,0,.03,0,.017,0,.018,0,.016,0,.015,0,.01v.01l0,.015,0,.03c0,.012,0,.024.006.036v.006l0,.009,0,.015.006.037,0,.011v.015l.007.045,0,.019c0,.02.006.04.009.061v0a19.621,19.621,0,0,1-2.011,13l-.007.013,0,.007-.012.022-.016.027,0,0a17.583,17.583,0,0,1-1.341,1.993,20.665,20.665,0,0,1-4.665,4.32A27.791,27.791,0,0,1,82,82.25c-.488.207-.989.406-1.49.589h0l-.009,0a31.007,31.007,0,0,1-5.029,1.391c-.123.021-.188.031-.188.031L70.99,163.159v0l-.047.871.083-.049,2.06-1.218,9.423-5.571a58.277,58.277,0,0,1,20.06-32.976,57.674,57.674,0,0,1,10.233-6.686,36.849,36.849,0,0,1,4.4-1.932,79.265,79.265,0,0,0-.452-9.9c-.367-4.587-.933-10.234-1.683-16.782-.937-8.181-2.164-17.8-3.649-28.587a75.919,75.919,0,0,0-1.64-8.42,68.554,68.554,0,0,0-2.4-7.557,62.843,62.843,0,0,0-6.609-12.7A63.829,63.829,0,0,0,83.683,14.682,71.9,71.9,0,0,0,75.117,9.7a72.7,72.7,0,0,0-7.3-3.124A52.83,52.83,0,0,0,60.824,4.5h0ZM89.477,138.582h0l4.966-25.106a16.69,16.69,0,0,0,4.309.557h0a13.275,13.275,0,0,0,4.426-.707,9.715,9.715,0,0,0,4.233-2.886,15.766,15.766,0,0,0,2.712-6.079,56.334,56.334,0,0,0,1.393-7.994c.548-4.966.585-9.426.587-9.918l1.1,26.2h0a28.79,28.79,0,0,0-2.775,1.375,47.039,47.039,0,0,0-6.606,4.454,46.544,46.544,0,0,0-7.847,8.024A43.439,43.439,0,0,0,89.477,138.582Zm-56.849,0a43.428,43.428,0,0,0-6.5-12.081,46.555,46.555,0,0,0-7.847-8.024,47.03,47.03,0,0,0-6.605-4.454A29.114,29.114,0,0,0,8.9,112.649h0L10,86.434c0,.041.007,4.681.587,9.934a56.348,56.348,0,0,0,1.393,7.994,15.769,15.769,0,0,0,2.712,6.079,9.716,9.716,0,0,0,4.233,2.886,13.283,13.283,0,0,0,4.426.707,16.667,16.667,0,0,0,4.309-.556h0l4.966,25.106ZM26.655,61.069h0c.052-.427.117-.866.192-1.3l.319.122C27.075,60.075,26.887,60.477,26.655,61.069ZM20.211,49.456a45.979,45.979,0,0,1,15.9-26.8,47.423,47.423,0,0,1,8.352-5.523,30.652,30.652,0,0,1,3.618-1.617,7.636,7.636,0,0,1,2.766-.494c1.778,0,6.142.613,8.271,6.289a8.582,8.582,0,0,1-.919,7.939c-2.62,3.951-8.32,6.388-15.638,6.687-10.829.442-17.044,7.6-20.383,11.44a17.935,17.935,0,0,1-1.968,2.081Zm10.407-.889a2.874,2.874,0,0,1-2.68-1.87l0,0a17.944,17.944,0,0,1,2.517-2.516,11.087,11.087,0,0,1,6.036-2.725c.055,0,.108,0,.156,0a.97.97,0,0,1,.972.459c.29.606-.185,1.794-1.24,3.1a12.082,12.082,0,0,1-2.68,2.447A5.856,5.856,0,0,1,30.618,48.567Z" transform="translate(0 0)" fill="#fff"/>
      </g>
      <path id="Subtraction_6" data-name="Subtraction 6" d="M28.918,103.475h0L13,93.127a90.647,90.647,0,0,0,8.87-29.192L0,63.615v-10.1l22.587.05c.007-.589.008-1.2,0-1.823,0-.578,0-1.178,0-1.783L0,50V39.936l21.878-.317A90.712,90.712,0,0,0,13,10.348L28.918,0V103.475ZM85.154,73.348h0V60.306L35.167,63.4V40.117l49.986,3.092v-13a21.571,21.571,0,0,1,0,43.141Z" transform="translate(603.886 36.39)" fill="#fff"/>
    </g>
    <path id="Subtraction_7" data-name="Subtraction 7" d="M21.081,16.7h0l-3.565-.052L0,8.369,17.513.051,21.081,0V7.118l-6.159.014-7.8,1.237,7.8,1.193,6.159.014V16.7Z" transform="translate(233.698 142.38)" fill="#fff"/>
  </g>
</svg>
