<svg xmlns="http://www.w3.org/2000/svg" width="21.998" height="22" viewBox="0 0 21.998 22">
  <g id="Analytics" transform="translate(-0.018 0)">
    <g id="Group_1626" data-name="Group 1626" transform="translate(0.018 0)">
      <path id="Path_15169" data-name="Path 15169" d="M14.746,3.026c.3-.653.608-1.3.93-2a10.884,10.884,0,0,0-10.292.549,10.849,10.849,0,0,0-5.366,8.5c.757.068,1.474.127,2.191.191A8.88,8.88,0,0,1,14.746,3.026Z" transform="translate(-0.018 0)"/>
      <path id="Path_15170" data-name="Path 15170" d="M269.3,201.219c-.712.122-1.42.249-2.159.376a8.863,8.863,0,0,1-7.924,10.324c.064.726.122,1.433.186,2.141A10.965,10.965,0,0,0,269.3,201.219Z" transform="translate(-247.461 -192.092)"/>
      <path id="Path_15171" data-name="Path 15171" d="M3.414,260.319c-.68.059-1.388.118-2.1.181a10.925,10.925,0,0,0,9.974,10.011c.064-.726.127-1.438.186-2.127C6.87,267.613,4.194,264.941,3.414,260.319Z" transform="translate(-1.259 -248.511)"/>
      <path id="Path_15172" data-name="Path 15172" d="M355.841,47.97a9.263,9.263,0,0,1,1.306,2.359l2.068-.753a11.13,11.13,0,0,0-4.037-5.257c-.422.6-.835,1.188-1.261,1.8A9.541,9.541,0,0,1,355.841,47.97Z" transform="translate(-337.865 -42.309)"/>
    </g>
  </g>
</svg>
