<svg xmlns="http://www.w3.org/2000/svg" width="18.463" height="22" viewBox="0 0 18.463 22">
  <g id="Audits" transform="translate(-23.945)">
    <path id="Path_15168" data-name="Path 15168" d="M41.685,3,33.548.066a1.1,1.1,0,0,0-.75,0L24.691,3a1.122,1.122,0,0,0-.746,1.041V11A8.615,8.615,0,0,0,25.4,15.616a15.351,15.351,0,0,0,3.013,3.374,22.964,22.964,0,0,0,4.291,2.895,1.114,1.114,0,0,0,.979,0,22.569,22.569,0,0,0,4.293-2.87,15.064,15.064,0,0,0,3-3.374A8.64,8.64,0,0,0,42.408,11V4.044A1.1,1.1,0,0,0,41.685,3ZM25.717,10.995V4.872a.551.551,0,0,1,.362-.521l6.891-2.507a.61.61,0,0,1,.206-.039V11h7.512a.1.1,0,0,1,0,.016c0,2-1.011,3.989-3,5.923a20.982,20.982,0,0,1-4.224,3.1.685.685,0,0,1-.289.069V11Z"/>
  </g>
</svg>
