<svg xmlns="http://www.w3.org/2000/svg" width="22" height="22.263" viewBox="0 0 22 22.263">
  <g id="Trade" transform="translate(24.507) rotate(90)">
    <path id="Path_15164" data-name="Path 15164" d="M2.3,29.093A9.568,9.568,0,0,1,4.765,18.307l3.2,3.2V15.1H1.557l2.1,2.1A11.129,11.129,0,0,0,9.432,36.437l.242-1.558A9.493,9.493,0,0,1,2.3,29.093Z" transform="translate(0 -11.93)"/>
    <path id="Path_15165" data-name="Path 15165" d="M248.345,17.766A11.134,11.134,0,0,0,244.865,4.7a11.2,11.2,0,0,0-5.1-2.19l-.242,1.558a9.56,9.56,0,0,1,4.908,16.573l-3.2-3.2v6.406h6.406l-2.091-2.091A11.091,11.091,0,0,0,248.345,17.766Z" transform="translate(-226.935)"/>
  </g>
</svg>
